<!DOCTYPE svg PUBLIC "-//W3C//DTD SVG 1.1//EN" "http://www.w3.org/Graphics/SVG/1.1/DTD/svg11.dtd">

<!-- Uploaded to: SVG Repo, www.svgrepo.com, Transformed by: SVG Repo Mixer Tools -->
<svg fill="#fff" width="800px" height="800px" viewBox="0 0 1024 1024" xmlns="http://www.w3.org/2000/svg" stroke="#fff">

<g id="SVGRepo_bgCarrier" stroke-width="0"/>

<g id="SVGRepo_tracerCarrier" stroke-linecap="round" stroke-linejoin="round"/>

<g id="SVGRepo_iconCarrier">

<path d="M682.667 333.752c0-35.468-75.779-71.68-172.37-71.68-96.6 0-172.38 36.211-172.38 71.68s75.78 71.68 172.38 71.68c96.591 0 172.37-36.212 172.37-71.68zm0 67.879c-39.04 27.92-102.154 44.762-172.37 44.762-70.22 0-133.336-16.841-172.377-44.76v56.074c.555 35.343 76.132 71.289 172.377 71.289 96.591 0 172.37-36.212 172.37-71.68v-55.685zm40.96-67.879V704.44c0 .229-.004.456-.011.683h.011c0 66.334-96.901 112.64-213.33 112.64-111.948 0-205.839-42.803-212.912-105.058a20.6 20.6 0 01-.425-4.169v-2.766a69.61 69.61 0 01-.003-.647l.003-124.281a69.61 69.61 0 01-.003-.647l.003-122.233a69.61 69.61 0 01-.003-.647l.003-122.916a69.61 69.61 0 01-.003-.647c0-66.335 96.903-112.64 213.34-112.64 116.429 0 213.33 46.306 213.33 112.64zm-40.949 371.371a22.122 22.122 0 01-.011-.683v-56.367c-39.04 27.92-102.154 44.762-172.37 44.762-70.22 0-133.336-16.841-172.377-44.76v57.439c.555 35.343 76.132 71.289 172.377 71.289 96.591 0 172.37-36.212 172.37-71.68h.011zm-.011-124.928v-55.002c-39.04 27.92-102.154 44.762-172.37 44.762-70.22 0-133.336-16.841-172.377-44.76v55.391c.555 35.343 76.132 71.289 172.377 71.289 96.591 0 172.37-36.212 172.37-71.68z"/>

<path d="M860.16 942.08c45.245 0 81.92-36.675 81.92-81.92V163.84c0-45.245-36.675-81.92-81.92-81.92H163.84c-45.245 0-81.92 36.675-81.92 81.92v696.32c0 45.245 36.675 81.92 81.92 81.92h696.32zm0 40.96H163.84c-67.866 0-122.88-55.014-122.88-122.88V163.84c0-67.866 55.014-122.88 122.88-122.88h696.32c67.866 0 122.88 55.014 122.88 122.88v696.32c0 67.866-55.014 122.88-122.88 122.88z"/>

</g>

</svg>